<svg height="766" width="720" xmlns="http://www.w3.org/2000/svg">
<rect height="766" fill="#555" width="720"></rect>
<text fill="#7f7" font-family="Courier New" font-size="12" xml:space="preserve">
<tspan x="10" y="26">2017-10-04 20:31:53 +0800</tspan>
<tspan x="10" y="42">update readme</tspan>
<tspan x="10" y="58"></tspan>
<tspan x="10" y="74">2017-10-04 16:39:26 +0800</tspan>
<tspan x="10" y="90">- rename ajaxForwardProxyUrlTest to githubForwardProxyUrlTest</tspan>
<tspan x="10" y="106"></tspan>
<tspan x="10" y="122">2017-10-02 18:50:41 +0900</tspan>
<tspan x="10" y="138">[npm publish] - npm publish 2017.9.31</tspan>
<tspan x="10" y="154">- fix ajaxProgressUpdate bar on first-load</tspan>
<tspan x="10" y="170"></tspan>
<tspan x="10" y="186">2017-10-01 11:36:01 +0900</tspan>
<tspan x="10" y="202">[npm publish] - npm publish 2017.9.30</tspan>
<tspan x="10" y="218">- update shared functions</tspan>
<tspan x="10" y="234">- revamp README.md</tspan>
<tspan x="10" y="250"></tspan>
<tspan x="10" y="266">2017-05-20 17:47:17 +0800</tspan>
<tspan x="10" y="282">[npm publish] - npm publish 2017.5.9</tspan>
<tspan x="10" y="298">- add feature - grid populates one by one with a bubble popup animation</tspan>
<tspan x="10" y="314">- fixed bug - Refreshing the page takes an awful long time to load everything.</tspan>
<tspan x="10" y="330">- fix bug - Mentioned above but opening an item description and scrolling will make the entire p\</tspan>
<tspan x="10" y="346">age jump up and down a lot.</tspan>
<tspan x="10" y="362"></tspan>
<tspan x="10" y="378">2017-05-20 10:42:28 +0800</tspan>
<tspan x="10" y="394">[npm publish] - npm publish 2017.5.8</tspan>
<tspan x="10" y="410">- fix regression - handle 'no result' search-case</tspan>
<tspan x="10" y="426"></tspan>
<tspan x="10" y="442">2017-05-19 11:12:17 +0800</tspan>
<tspan x="10" y="458">[npm publish] - npm publish 2017.5.7</tspan>
<tspan x="10" y="474">- fix bug - If you sort by lowest price on music/music videos it shows the first ones with a val\</tspan>
<tspan x="10" y="490">ue of -1, but going to iTunes on this shows it as Album</tspan>
<tspan x="10" y="506"></tspan>
<tspan x="10" y="522">2017-05-06 16:27:30 +0800</tspan>
<tspan x="10" y="538">[npm publish] - npm publish 2017.5.6</tspan>
<tspan x="10" y="554">- fix card expansion bug</tspan>
<tspan x="10" y="570"></tspan>
<tspan x="10" y="586">2017-05-06 07:02:12 +0800</tspan>
<tspan x="10" y="602">[npm publish] - npm publish 2017.5.5</tspan>
<tspan x="10" y="618">- first publish</tspan>
<tspan x="10" y="634">- When you click on the item, it should transform and show (a) the long description and (b) a Bu\</tspan>
<tspan x="10" y="650">y Button at the bottom in any shape or form.</tspan>
<tspan x="10" y="666">- When you select a new item card, the previously selected one will be unselected.</tspan>
<tspan x="10" y="682">- Website requires at least one animation (“Example, the grid populates one by one with a bubble\</tspan>
<tspan x="10" y="698"> popup animation)</tspan>
<tspan x="10" y="714"></tspan>
<tspan x="10" y="730">2014-03-26 02:31:50 +0700</tspan>
<tspan x="10" y="746">add blank README.md</tspan>
</text>
</svg>
