<svg height="638" width="720" xmlns="http://www.w3.org/2000/svg">
<rect height="638" fill="#555" width="720"></rect>
<text fill="#7f7" font-family="Courier New" font-size="12" xml:space="preserve">
<tspan x="10" y="26"></tspan>
<tspan x="10" y="42">&gt; itunes-search-lite@2017.5.6 postinstall /tmp/app/node_modules/itunes-search-lite</tspan>
<tspan x="10" y="58">&gt; [ ! -f npm_scripts.sh ] || ./npm_scripts.sh postinstall</tspan>
<tspan x="10" y="74"></tspan>
<tspan x="10" y="90">/tmp/app</tspan>
<tspan x="10" y="106">└── itunes-search-lite@2017.5.6 </tspan>
<tspan x="10" y="122"></tspan>
<tspan x="10" y="138">npm WARN enoent ENOENT: no such file or directory, open '/tmp/app/package.json'</tspan>
<tspan x="10" y="154">npm WARN app No description</tspan>
<tspan x="10" y="170">npm WARN app No repository field.</tspan>
<tspan x="10" y="186">npm WARN app No README data</tspan>
<tspan x="10" y="202">npm WARN app No license field.</tspan>
<tspan x="10" y="218"></tspan>
<tspan x="10" y="234">&gt; electron-lite@2017.4.16 postinstall /tmp/app/node_modules/itunes-search-lite/node_modules/elec\</tspan>
<tspan x="10" y="250">tron-lite</tspan>
<tspan x="10" y="266">&gt; [ ! -f npm_scripts.sh ] || ./npm_scripts.sh postinstall</tspan>
<tspan x="10" y="282"></tspan>
<tspan x="10" y="298"></tspan>
<tspan x="10" y="314">&gt; utility2@2017.5.5 postinstall /tmp/app/node_modules/itunes-search-lite/node_modules/utility2</tspan>
<tspan x="10" y="330">&gt; [ ! -f npm_scripts.sh ] || ./npm_scripts.sh postinstall</tspan>
<tspan x="10" y="346"></tspan>
<tspan x="10" y="362"></tspan>
<tspan x="10" y="378">&gt; itunes-search-lite@2017.5.6 postinstall /tmp/app/node_modules/itunes-search-lite</tspan>
<tspan x="10" y="394">&gt; [ ! -f npm_scripts.sh ] || ./npm_scripts.sh postinstall</tspan>
<tspan x="10" y="410"></tspan>
<tspan x="10" y="426">itunes-search-lite@2017.5.6 /tmp/app/node_modules/itunes-search-lite</tspan>
<tspan x="10" y="442">├── electron-lite@2017.4.16  (git://github.com/kaizhu256/node-electron-lite.git#3b566e4f97069e6c\</tspan>
<tspan x="10" y="458">4a9d342074cb85d5cd2c276e)</tspan>
<tspan x="10" y="474">└── utility2@2017.5.5 </tspan>
<tspan x="10" y="490"></tspan>
<tspan x="10" y="506"></tspan>
<tspan x="10" y="522">&gt; itunes-search-lite@2017.5.6 start /tmp/app/node_modules/itunes-search-lite</tspan>
<tspan x="10" y="538">&gt; PORT=${PORT:-8080} utility2 start test.js</tspan>
<tspan x="10" y="554"></tspan>
<tspan x="10" y="570">(re)starting shIstanbulCover test.js</tspan>
<tspan x="10" y="586">&gt; server listening on http-port 8081</tspan>
<tspan x="10" y="602">process exited with code 0</tspan>
<tspan x="10" y="618">EXIT_CODE - 0</tspan>
</text>
</svg>
