<svg height="526" width="720" xmlns="http://www.w3.org/2000/svg">
<rect height="526" fill="#555" width="720"></rect>
<text fill="#7f7" font-family="Courier New" font-size="12" xml:space="preserve">
<tspan x="10" y="26">2017-05-20 17:47:17 +0800</tspan>
<tspan x="10" y="42">[npm publish] - npm publish 2017.5.9</tspan>
<tspan x="10" y="58">- add feature - grid populates one by one with a bubble popup animation</tspan>
<tspan x="10" y="74">- fixed bug - Refreshing the page takes an awful long time to load everything.</tspan>
<tspan x="10" y="90">- fix bug - Mentioned above but opening an item description and scrolling will make the entire p\</tspan>
<tspan x="10" y="106">age jump up and down a lot.</tspan>
<tspan x="10" y="122"></tspan>
<tspan x="10" y="138">2017-05-20 10:42:28 +0800</tspan>
<tspan x="10" y="154">[npm publish] - npm publish 2017.5.8</tspan>
<tspan x="10" y="170">- fix regression - handle 'no result' search-case</tspan>
<tspan x="10" y="186"></tspan>
<tspan x="10" y="202">2017-05-19 11:12:17 +0800</tspan>
<tspan x="10" y="218">[npm publish] - npm publish 2017.5.7</tspan>
<tspan x="10" y="234">- fix bug - If you sort by lowest price on music/music videos it shows the first ones with a val\</tspan>
<tspan x="10" y="250">ue of -1, but going to iTunes on this shows it as Album</tspan>
<tspan x="10" y="266"></tspan>
<tspan x="10" y="282">2017-05-06 16:27:30 +0800</tspan>
<tspan x="10" y="298">[npm publish] - npm publish 2017.5.6</tspan>
<tspan x="10" y="314">- fix card expansion bug</tspan>
<tspan x="10" y="330"></tspan>
<tspan x="10" y="346">2017-05-06 07:02:12 +0800</tspan>
<tspan x="10" y="362">[npm publish] - npm publish 2017.5.5</tspan>
<tspan x="10" y="378">- first publish</tspan>
<tspan x="10" y="394">- When you click on the item, it should transform and show (a) the long description and (b) a Bu\</tspan>
<tspan x="10" y="410">y Button at the bottom in any shape or form.</tspan>
<tspan x="10" y="426">- When you select a new item card, the previously selected one will be unselected.</tspan>
<tspan x="10" y="442">- Website requires at least one animation (“Example, the grid populates one by one with a bubble\</tspan>
<tspan x="10" y="458"> popup animation)</tspan>
<tspan x="10" y="474"></tspan>
<tspan x="10" y="490">2014-03-26 02:31:50 +0700</tspan>
<tspan x="10" y="506">add blank README.md</tspan>
</text>
</svg>
