<svg height="750" width="720" xmlns="http://www.w3.org/2000/svg">
<rect height="750" fill="#555" width="720"></rect>
<text fill="#7f7" font-family="Courier New" font-size="12" xml:space="preserve">
<tspan x="10" y="26"></tspan>
<tspan x="10" y="42">[MODE_BUILD=buildApp] - 2017-10-01T03:05:21.098Z - npm-testing /home/travis/build/kaizhu256/node\</tspan>
<tspan x="10" y="58">-itunes-search-lite</tspan>
<tspan x="10" y="74"></tspan>
<tspan x="10" y="90"></tspan>
<tspan x="10" y="106">buildApp - merged test-report from file /home/travis/build/kaizhu256/node-itunes-search-lite/tmp\</tspan>
<tspan x="10" y="122">/build/test-report.json</tspan>
<tspan x="10" y="138">override assets assets.index.template.html</tspan>
<tspan x="10" y="154">override assets assets.swgg.swagger.json</tspan>
<tspan x="10" y="170">&gt; server listening on http-port 50707</tspan>
<tspan x="10" y="186">&gt; server listening on http-port 40569</tspan>
<tspan x="10" y="202">[node test-case 1 of 1 passed] - testCase_buildApp_default</tspan>
<tspan x="10" y="218"></tspan>
<tspan x="10" y="234">buildApp - merged test-report from file /home/travis/build/kaizhu256/node-itunes-search-lite/tmp\</tspan>
<tspan x="10" y="250">/build/test-report.json</tspan>
<tspan x="10" y="266"></tspan>
<tspan x="10" y="282">-------------------------------------------------------</tspan>
<tspan x="10" y="298">| test-report - buildApidoc - node - linux v6.11.3 - 2017-10-01T03:04:27.105Z</tspan>
<tspan x="10" y="314">|   60148 ms            0 failed        1 passed      |</tspan>
<tspan x="10" y="330">-------------------------------------------------------</tspan>
<tspan x="10" y="346">| test-report - npmTest - browser - /index.default.html - Mozilla/5.0 (X11; Linux x86_64) AppleW\</tspan>
<tspan x="10" y="362">ebKit/537.36 (KHTML, like Gecko) Chrome/56.0.2924.87 Electron/1.6.11 Safari/537.36 - 2017-10-01T\</tspan>
<tspan x="10" y="378">03:04:09.456Z</tspan>
<tspan x="10" y="394">|      24 ms            0 failed        8 passed      |</tspan>
<tspan x="10" y="410">-------------------------------------------------------</tspan>
<tspan x="10" y="426">| test-report - npmTest - node - linux v6.11.3 - 2017-10-01T03:04:07.542Z</tspan>
<tspan x="10" y="442">|   16318 ms            0 failed        8 passed      |</tspan>
<tspan x="10" y="458">-------------------------------------------------------</tspan>
<tspan x="10" y="474">| test-report - npmTestPublished - browser - /index.default.html - Mozilla/5.0 (X11; Linux x86_6\</tspan>
<tspan x="10" y="490">4) AppleWebKit/537.36 (KHTML, like Gecko) Chrome/56.0.2924.87 Electron/1.6.11 Safari/537.36 - 20\</tspan>
<tspan x="10" y="506">17-10-01T03:03:03.183Z</tspan>
<tspan x="10" y="522">|      34 ms            0 failed        8 passed      |</tspan>
<tspan x="10" y="538">-------------------------------------------------------</tspan>
<tspan x="10" y="554">| test-report - npmTestPublished - node - linux v6.11.3 - 2017-10-01T03:03:00.738Z</tspan>
<tspan x="10" y="570">|   16719 ms            0 failed        8 passed      |</tspan>
<tspan x="10" y="586">-------------------------------------------------------</tspan>
<tspan x="10" y="602"></tspan>
<tspan x="10" y="618">created test-report file /home/travis/build/kaizhu256/node-itunes-search-lite/tmp/build/test-rep\</tspan>
<tspan x="10" y="634">ort.html</tspan>
<tspan x="10" y="650"></tspan>
<tspan x="10" y="666"></tspan>
<tspan x="10" y="682">buildApp - 0 failed tests</tspan>
<tspan x="10" y="698"></tspan>
<tspan x="10" y="714"></tspan>
<tspan x="10" y="730">[MODE_BUILD=buildApp] - 2017-10-01T03:05:29.444Z - EXIT_CODE - 0</tspan>
</text>
</svg>
